<svg width="28" height="28" viewBox="0 0 28 28" fill="none" xmlns="http://www.w3.org/2000/svg">
<path d="M21.8283 11.0718C21.7116 11.0718 21.595 11.0484 21.4783 11.0018C21.035 10.8034 20.8367 10.2901 21.0233 9.84675C21.245 9.34509 21.1167 8.61009 20.7083 8.00342C20.3 7.38509 19.6817 6.96509 19.1217 7.00009C18.6083 7.00009 18.2467 6.61509 18.235 6.13675C18.235 5.64675 18.62 5.26175 19.0983 5.25009C20.3 5.22675 21.4317 5.91509 22.1667 7.02342C22.9133 8.14342 23.0883 9.48509 22.6333 10.5351C22.4933 10.8734 22.1666 11.0718 21.8283 11.0718Z" fill="white"/>
<path d="M25.4567 12.2266C25.3751 12.2266 25.3051 12.2149 25.2234 12.1916C24.7567 12.0632 24.4884 11.5849 24.6167 11.1182C25.0601 9.53158 24.6867 7.64158 23.6251 6.05492C22.5634 4.46825 20.9534 3.40658 19.3084 3.20825C18.8301 3.14992 18.4917 2.71825 18.5501 2.23992C18.6084 1.76158 19.0517 1.41158 19.5184 1.48158C21.6534 1.73825 23.7301 3.09158 25.0717 5.09825C26.4134 7.10492 26.8684 9.53158 26.2967 11.6082C26.1917 11.9699 25.8417 12.2266 25.4567 12.2266Z" fill="white"/>
<path d="M19.9733 13.7434C19.9733 14.0934 19.6817 14.385 19.3317 14.385H4.00165C3.65165 14.385 3.35999 14.0934 3.35999 13.7434C3.35999 13.3934 3.65165 13.1017 4.00165 13.1017H4.86499L5.19165 11.5617C5.49499 10.0684 6.13665 8.70337 8.67999 8.70337H14.665C17.2083 8.70337 17.8383 10.08 18.1533 11.5617L18.48 13.1017H19.3433C19.6817 13.1017 19.9733 13.3934 19.9733 13.7434Z" fill="white"/>
<path d="M20.3348 18.5617C20.2065 17.1617 19.8332 15.6567 17.1032 15.6567H6.22984C3.49984 15.6567 3.12651 17.1617 2.99817 18.5617L2.51984 23.7534C2.46151 24.3951 2.67151 25.0484 3.11484 25.5384C3.56984 26.0284 4.19984 26.3084 4.88817 26.3084H6.48651C7.86317 26.3084 8.13151 25.5151 8.30651 25.0017L8.48151 24.4884C8.67984 23.9051 8.72651 23.7534 9.49651 23.7534H13.8598C14.6298 23.7534 14.6532 23.8351 14.8748 24.4884L15.0498 25.0017C15.2248 25.5267 15.4815 26.3084 16.8698 26.3084H18.4682C19.1448 26.3084 19.7865 26.0284 20.2415 25.5384C20.6848 25.0484 20.8948 24.4067 20.8365 23.7534L20.3348 18.5617ZM9.11151 20.3351H6.55651C6.20651 20.3351 5.91484 20.0434 5.91484 19.6934C5.91484 19.3434 6.20651 19.0517 6.55651 19.0517H9.11151C9.46151 19.0517 9.75317 19.3434 9.75317 19.6934C9.75317 20.0434 9.46151 20.3351 9.11151 20.3351ZM16.7765 20.3351H14.2215C13.8715 20.3351 13.5798 20.0434 13.5798 19.6934C13.5798 19.3434 13.8715 19.0517 14.2215 19.0517H16.7765C17.1265 19.0517 17.4182 19.3434 17.4182 19.6934C17.4182 20.0434 17.1265 20.3351 16.7765 20.3351Z" fill="white"/>
</svg>
